PathFileType	4	(X/Y/Z)	 s02c0403.trc
DataRate	CameraRate	NumFrames	NumMarkers	Units	OrigDataRate	OrigDataStartFrame	OrigNumFrames
200	200	4	51	mm	200	1751	2000
Frame#	Time	racr			lacr			c7			jug			rlel			rdr			llel			ldr			s2			lic			ric			lasi			rasi			rpsi			lpsi			rgt			lgt			rth1			rth2			rth3			rth4			rlfc			rmfc			rsh1			rsh2			rsh3			rsh4			rlmal			rmmal			rcal			rtoe			rmt5			rmt1			lth1			lth2			lth4			lth3			llfc			lmfc			lsh1			lsh2			lsh3			lsh4			llmal			lmmal			lcal			ltoe			lmt5			SBIKE			LBIKE			RBIKE			
		X1	Y1	Z1	X2	Y2	Z2	X3	Y3	Z3	X4	Y4	Z4	X5	Y5	Z5	X6	Y6	Z6	X7	Y7	Z7	X8	Y8	Z8	X9	Y9	Z9	X10	Y10	Z10	X11	Y11	Z11	X12	Y12	Z12	X13	Y13	Z13	X14	Y14	Z14	X15	Y15	Z15	X16	Y16	Z16	X17	Y17	Z17	X18	Y18	Z18	X19	Y19	Z19	X20	Y20	Z20	X21	Y21	Z21	X22	Y22	Z22	X23	Y23	Z23	X24	Y24	Z24	X25	Y25	Z25	X26	Y26	Z26	X27	Y27	Z27	X28	Y28	Z28	X29	Y29	Z29	X30	Y30	Z30	X31	Y31	Z31	X32	Y32	Z32	X33	Y33	Z33	X34	Y34	Z34	X35	Y35	Z35	X36	Y36	Z36	X37	Y37	Z37	X38	Y38	Z38	X39	Y39	Z39	X40	Y40	Z40	X41	Y41	Z41	X42	Y42	Z42	X43	Y43	Z43	X44	Y44	Z44	X45	Y45	Z45	X46	Y46	Z46	X47	Y47	Z47	X48	Y48	Z48	X49	Y49	Z49	X50	Y50	Z50	X51	Y51	Z51	
1751	8.7550	806.413485	1243.394219	-123.435271	789.050560	1177.146529	-479.554599	807.215525	1260.779690	-315.283060	NaN	NaN	NaN	639.612830	1041.416980	-16.610107	716.405305	882.424342	-106.613963	589.462227	1036.200383	-633.338966	693.275800	887.470316	-524.788940	252.891653	1193.340115	-295.608769	381.419119	1144.912298	-434.215030	366.817388	1172.238190	-147.335257	413.872826	1101.824889	-402.463064	409.213639	1135.869229	-177.077611	273.465714	1221.995196	-258.604873	287.633800	1218.836134	-344.752289	337.118967	1088.864521	-100.196744	309.600222	1065.719678	-459.988591	414.861832	1032.439757	-108.123226	490.970215	986.300074	-113.821196	537.717193	917.921086	-90.488053	510.311388	1003.872666	-140.823702	591.671856	785.574210	-121.369553	572.404887	772.931950	-230.888364	508.705986	709.646151	-107.712191	440.581085	653.858274	-127.270254	357.948335	633.678880	-122.333508	450.340817	643.883166	-162.540978	243.627416	587.432509	-128.498779	271.060772	597.503835	-209.203862	172.922366	628.305178	-176.312995	284.943672	364.381132	-191.203423	226.287978	453.264454	-127.139694	247.583480	440.586938	-235.148417	377.890469	942.945203	-484.062638	420.808211	867.194108	-482.879786	454.119842	876.105979	-472.835141	419.106252	778.511237	-482.866486	446.453423	684.155526	-465.788752	447.306867	651.181513	-369.909103	416.353498	585.027728	-492.448620	417.380278	499.447686	-480.709938	372.556807	420.746276	-483.897052	437.372932	496.481970	-445.396405	333.229758	322.276768	-472.984335	348.487888	315.332378	-396.317215	259.745264	295.689671	-434.391735	521.523512	171.136774	-439.875094	415.041819	194.239560	-500.042611	-125.994409	872.059086	-308.762584	37.261537	86.450317	-514.208448	33.430344	83.966065	-114.108250	
1752	8.7600	805.532265	1244.085965	-120.584829	790.276413	1178.284967	-476.889344	807.345109	1261.532974	-312.177455	NaN	NaN	NaN	639.053330	1040.763556	-15.377939	716.311095	882.426680	-106.243351	590.688550	1037.525428	-631.589663	693.722023	887.104010	-524.561365	252.647122	1191.330779	-297.357481	382.666891	1142.352039	-435.047256	365.633116	1171.482567	-147.781799	414.684119	1099.216544	-402.434248	408.429054	1135.435420	-177.363783	272.908444	1219.931367	-260.451963	287.914658	1216.606493	-346.265955	336.307833	1088.811092	-100.481312	309.811326	1062.791484	-459.781752	415.911123	1034.826623	-107.391974	492.694651	990.090080	-113.737764	540.765230	922.567606	-90.818837	511.799676	1008.437644	-140.651019	598.310555	791.733070	-122.841216	579.055740	779.093163	-231.900250	515.712733	715.597776	-109.587069	447.379712	660.206455	-129.067737	364.704528	640.104241	-123.939218	456.930844	650.261079	-164.447945	250.586441	594.669211	-129.505868	277.278836	604.778902	-210.292975	178.704284	634.872157	-176.641175	294.228722	372.256575	-191.413534	234.854848	460.469119	-127.602055	255.401195	447.932919	-235.637605	375.184738	938.742846	-484.009684	416.122154	861.952291	-482.502687	449.748124	870.033610	-471.740035	412.111585	773.281853	-482.365417	437.039051	678.886667	-465.164842	436.368180	645.902722	-369.535723	407.366457	580.091339	-492.212120	409.696006	494.672927	-481.360620	364.896750	415.426928	-484.086218	428.625761	491.508221	-444.722075	326.643519	316.581095	-473.321745	341.666678	309.550585	-396.597552	253.107124	291.083324	-434.665416	513.158666	162.940470	-439.806874	407.187368	187.399036	-500.046360	-125.994702	872.086708	-308.690534	37.246106	86.433243	-514.217421	33.769086	83.498340	-114.115752	
1753	8.7650	804.612012	1244.487825	-117.547953	791.556124	1179.416518	-474.189876	807.445221	1262.078441	-309.025966	NaN	NaN	NaN	638.452084	1040.310943	-14.011932	716.173954	882.412515	-105.842102	592.035761	1038.878978	-629.864255	693.812699	886.451101	-524.132529	252.774787	1189.349287	-299.311730	384.040428	1139.662840	-435.688316	364.476888	1170.779834	-148.292376	415.559484	1096.568161	-402.063946	407.518449	1134.845942	-177.710441	272.539088	1217.948186	-262.285543	288.274961	1214.580334	-347.893573	335.214146	1088.811050	-101.009966	310.032091	1060.044990	-459.793323	416.399271	1037.103580	-105.979518	493.645584	993.209098	-113.136958	543.604055	927.174543	-91.268662	512.406073	1012.467564	-140.774562	604.979546	798.167801	-124.336438	585.657179	785.333559	-233.616845	522.713295	721.637829	-111.368995	454.216525	666.568307	-130.886184	371.185529	646.282136	-125.504954	463.484823	656.676827	-166.435021	257.967413	601.439160	-130.617075	283.838514	611.589858	-211.464543	185.104277	640.745235	-177.023165	303.924910	379.562497	-191.578570	243.712972	467.274650	-128.164656	264.772961	453.535621	-236.685473	372.317646	935.093968	-483.866790	411.388000	857.298476	-482.183231	445.121134	864.548329	-471.152537	405.147829	768.747442	-482.038483	427.767491	674.264897	-464.654902	425.656469	641.337239	-369.128240	398.352024	575.701078	-492.149890	401.393025	490.226145	-481.371158	357.095356	410.700529	-484.347555	419.893448	487.069006	-444.267272	319.782312	311.502705	-473.747724	334.420234	304.358938	-397.046531	246.335020	287.219031	-434.851700	504.488858	154.943716	-439.764354	398.862857	181.064807	-500.022266	-126.032679	872.058527	-308.749218	37.242127	86.401590	-514.233767	33.847907	83.397381	-114.126999	
1754	8.7700	803.665996	1244.649261	-114.523243	792.856697	1180.534745	-471.402144	807.575510	1262.554580	-305.742035	NaN	NaN	NaN	637.758039	1039.566480	-12.543958	715.995826	882.387756	-105.470720	593.539425	1040.262936	-628.084264	694.334309	886.112662	-523.957690	253.198638	1187.501962	-301.350968	385.208351	1137.074208	-436.296313	363.334295	1170.245118	-148.733677	416.242120	1094.029377	-401.692004	406.760398	1134.354889	-177.953752	272.367682	1216.152414	-264.053420	288.672261	1212.624516	-349.446802	333.884688	1088.849846	-101.465226	310.110735	1057.590382	-459.806043	415.986906	1038.312074	-105.275197	494.654707	997.030766	-113.477613	545.976701	931.807250	-91.340818	512.554266	1016.018972	-141.770023	611.122924	804.715223	-125.536877	592.650686	791.960741	-233.274255	529.741753	727.685736	-113.035178	461.317201	672.715801	-132.358731	378.164410	652.407679	-126.927329	467.078299	660.765107	-172.311269	265.583214	607.647765	-131.713954	290.709774	617.904045	-212.659396	191.854791	645.945459	-177.533212	314.576350	387.323492	-190.393999	252.888068	473.467460	-128.655721	273.422730	459.741693	-236.285799	369.439769	932.081716	-483.890438	406.647060	853.291030	-481.945921	440.457131	859.759747	-470.641396	398.209939	764.910946	-481.907072	418.464108	670.583675	-464.255922	415.526741	637.501244	-368.776049	389.204287	571.722503	-492.191684	392.837472	486.466932	-481.436614	349.103581	406.669657	-484.724468	411.154763	483.437481	-444.417406	312.781773	307.025288	-474.215370	327.327820	299.761316	-397.407317	239.381560	284.014400	-435.211030	495.350013	147.571366	-439.721679	390.271490	175.287830	-500.054210	-126.067722	872.048867	-308.758090	37.254355	86.387402	-514.240966	33.869844	83.372832	-114.177185	
